# xmcd
#
# Track frame offsets:
#	150
#	16296
#	32938
#	52160
#	71104
#	84238
#	102920
#	117001
#	131055
#	144871
#	164088
#	179666
#
# Disc length: 2681 seconds
# Revision: 0
# Processed by: cddbd v1.5.2PL0 Copyright (c) Steve Scherf et al.
# Submitted via: dBpowerAMP V12.0
#
DISCID=ab0a770c
DTITLE=Martin Deschamps - On Veut la Paix
DYEAR=2010
DGENRE=Blues Rock
TTITLE0=On veut la paix
TTITLE1=Près de toi
TTITLE2=Le meilleur de moi
TTITLE3=Ma bonne étoile
TTITLE4=Né pour être libre
TTITLE5=Dans ta voix
TTITLE6=Trop tard
TTITLE7=Méchante fille
TTITLE8=Ton trip
TTITLE9=Il pleut des cordes
TTITLE10=Chaleur
TTITLE11=Ainsi soit-il
EXTD=
EXTT0=
EXTT1=
EXTT2=
EXTT3=
EXTT4=
EXTT5=
EXTT6=
EXTT7=
EXTT8=
EXTT9=
EXTT10=
EXTT11=
PLAYORDER=
